<?xml version="1.0" encoding="utf-8"?>
<!-- Generator: Adobe Illustrator 25.0.0, SVG Export Plug-In . SVG Version: 6.00 Build 0)  -->
<svg version="1.1" id="Layer_1" xmlns="http://www.w3.org/2000/svg" xmlns:xlink="http://www.w3.org/1999/xlink" x="0px" y="0px"
	 viewBox="0 0 182.2 182.2" style="enable-background:new 0 0 182.2 182.2;" xml:space="preserve">
<style type="text/css">
	.st0{fill:#FFFFFF;}
	.st1{fill:none;stroke:#FFFFFF;stroke-width:4;}
</style>
<circle class="st0" cx="90.1" cy="70.5" r="32.2"/>
<polygon class="st0" points="35.1,140.6 41.9,128.5 49.4,119 58.7,111.7 72.2,105.3 84.1,103 92,103 100.3,103.7 108.9,106.1 
	116.7,109.2 125.1,114.5 136.4,125.7 142.8,136.6 143.6,141.4 133.3,150.1 119.8,158.2 101.3,163.8 80.3,164.1 61.5,158.8 
	43.8,149.3 "/>
<circle class="st1" cx="90.1" cy="90.1" r="74.3"/>
<path class="st1" d="M35.9,141C46.5,111,79.4,95.4,109.3,106c16.3,5.8,29.1,18.6,34.9,34.9"/>
</svg>
